<svg xmlns="http://www.w3.org/2000/svg" viewBox="0 0 32 32" fill="white">
  <path d="M16 2.7A13.3 13.3 0 0 0 3.3 16c0 2.4.7 4.7 2 6.8L3 29l6.4-2.1c2 1.1 4.3 1.6 6.6 1.6A13.3 13.3 0 1 0 16 2.7zm0 24a10.6 10.6 0 0 1-5.4-1.5l-.4-.2-3.8 1.3 1.3-3.7-.2-.4A10.6 10.6 0 1 1 16 26.7zm5.8-7.9c-.3-.1-1.8-.9-2-1-.3-.1-.5-.1-.7.1l-.9 1c-.2.2-.4.2-.7.1s-1.4-.5-2.6-1.6c-1-1-1.6-2.2-1.8-2.6-.1-.3 0-.5.1-.7l.8-.9c.2-.2.2-.4.1-.7-.1-.2-.7-1.7-1-2.3-.3-.6-.6-.5-.8-.5h-.7c-.2 0-.7.1-1 .5-.3.3-1.3 1.2-1.3 3 0 1.7 1.2 3.3 1.4 3.5.2.2 2.4 3.7 5.8 5.1.8.3 1.5.6 2 .7.8.3 1.5.2 2 .1.6-.1 1.8-.8 2-1.5.2-.7.2-1.3.2-1.5-.1-.2-.3-.3-.6-.4z"/>
</svg>
